# xmcd
#
# Track frame offsets:
#	150
#	11497
#	25245
#	38272
#	49692
#	61757
#	74667
#	87637
#	99460
#	112500
#	124500
#	137512
#	148797
#	161470
#	171925
#	183652
#	195662
#
# Disc length: 2768 seconds
# Revision: 14
# Processed by: cddbd v1.5.2PL0 Copyright (c) Steve Scherf et al.
# Submitted via: dBpowerAMP V12.0
#
DISCID=dd0ace11
DTITLE=Robert Johnson - King Of The Delta Blues Singers
DYEAR=1961
DGENRE=Blues
TTITLE0=Cross Road Blues
TTITLE1=Terraplane Blues
TTITLE2=Come On In My Kitchen
TTITLE3=Walkin' Blues
TTITLE4=Last Fair Deal Gone Down
TTITLE5=32-20 Blues
TTITLE6=Kind Hearted Woman Blues
TTITLE7=If I Had Possession Over Judgement Day
TTITLE8=Preaching Blues (Up Jumped The Devil)
TTITLE9=When You Got A Good Friend
TTITLE10=Rambling On My Mind
TTITLE11=Stones In My Passway
TTITLE12=Traveling Riverside Blues
TTITLE13=Milkcow's Calf Blues
TTITLE14=Me And The Devil Blues
TTITLE15=Hellhound On My Trail
TTITLE16=Traveling Riverside Blues
EXTD=
EXTT0=
EXTT1=
EXTT2=
EXTT3=
EXTT4=
EXTT5=
EXTT6=
EXTT7=
EXTT8=
EXTT9=
EXTT10=
EXTT11=
EXTT12=
EXTT13=
EXTT14=
EXTT15=
EXTT16=
PLAYORDER=
